<mxfile host="app.diagrams.net" modified="2022-07-12T07:18:29.363Z" agent="5.0 (Windows NT 10.0; WOW64) AppleWebKit/537.36 (KHTML, like Gecko) Chrome/87.0.4280.66 Safari/537.36" etag="QuOr7dUxJWuK0z2Hv3z9" version="20.0.4" type="github">
  <diagram id="DrotP85pvZVv-zyT9TeW" name="第 1 页">
    <mxGraphModel dx="1422" dy="762" grid="1" gridSize="10" guides="1" tooltips="1" connect="1" arrows="1" fold="1" page="1" pageScale="1" pageWidth="827" pageHeight="1169" math="0" shadow="0">
      <root>
        <mxCell id="0" />
        <mxCell id="1" parent="0" />
        <mxCell id="Jvwifc8JzOHJba4kG9xW-7" style="edgeStyle=orthogonalEdgeStyle;rounded=0;orthogonalLoop=1;jettySize=auto;html=1;exitX=0.5;exitY=1;exitDx=0;exitDy=0;entryX=0.5;entryY=0;entryDx=0;entryDy=0;" edge="1" parent="1" source="Jvwifc8JzOHJba4kG9xW-1" target="Jvwifc8JzOHJba4kG9xW-4">
          <mxGeometry relative="1" as="geometry" />
        </mxCell>
        <mxCell id="Jvwifc8JzOHJba4kG9xW-1" value="配置文件" style="rounded=1;whiteSpace=wrap;html=1;" vertex="1" parent="1">
          <mxGeometry x="110" y="70" width="120" height="60" as="geometry" />
        </mxCell>
        <mxCell id="Jvwifc8JzOHJba4kG9xW-8" style="edgeStyle=orthogonalEdgeStyle;rounded=0;orthogonalLoop=1;jettySize=auto;html=1;exitX=0.5;exitY=1;exitDx=0;exitDy=0;entryX=0.5;entryY=0;entryDx=0;entryDy=0;" edge="1" parent="1" source="Jvwifc8JzOHJba4kG9xW-2" target="Jvwifc8JzOHJba4kG9xW-5">
          <mxGeometry relative="1" as="geometry" />
        </mxCell>
        <mxCell id="Jvwifc8JzOHJba4kG9xW-2" value="配置模板" style="rounded=1;whiteSpace=wrap;html=1;" vertex="1" parent="1">
          <mxGeometry x="480" y="70" width="120" height="60" as="geometry" />
        </mxCell>
        <mxCell id="Jvwifc8JzOHJba4kG9xW-17" style="edgeStyle=orthogonalEdgeStyle;rounded=0;orthogonalLoop=1;jettySize=auto;html=1;entryX=0;entryY=0.5;entryDx=0;entryDy=0;" edge="1" parent="1" source="Jvwifc8JzOHJba4kG9xW-4" target="Jvwifc8JzOHJba4kG9xW-11">
          <mxGeometry relative="1" as="geometry">
            <mxPoint x="180" y="415" as="targetPoint" />
            <Array as="points">
              <mxPoint x="170" y="415" />
            </Array>
          </mxGeometry>
        </mxCell>
        <mxCell id="Jvwifc8JzOHJba4kG9xW-4" value="读取，存入configMap" style="ellipse;whiteSpace=wrap;html=1;aspect=fixed;" vertex="1" parent="1">
          <mxGeometry x="130" y="210" width="80" height="80" as="geometry" />
        </mxCell>
        <mxCell id="Jvwifc8JzOHJba4kG9xW-18" style="edgeStyle=orthogonalEdgeStyle;rounded=0;orthogonalLoop=1;jettySize=auto;html=1;entryX=1;entryY=0.5;entryDx=0;entryDy=0;" edge="1" parent="1" source="Jvwifc8JzOHJba4kG9xW-5" target="Jvwifc8JzOHJba4kG9xW-11">
          <mxGeometry relative="1" as="geometry" />
        </mxCell>
        <mxCell id="Jvwifc8JzOHJba4kG9xW-5" value="读取，存入templateMap" style="ellipse;whiteSpace=wrap;html=1;aspect=fixed;" vertex="1" parent="1">
          <mxGeometry x="500" y="210" width="80" height="80" as="geometry" />
        </mxCell>
        <mxCell id="Jvwifc8JzOHJba4kG9xW-21" style="edgeStyle=orthogonalEdgeStyle;rounded=0;orthogonalLoop=1;jettySize=auto;html=1;entryX=0.5;entryY=0;entryDx=0;entryDy=0;" edge="1" parent="1" source="Jvwifc8JzOHJba4kG9xW-11" target="Jvwifc8JzOHJba4kG9xW-19">
          <mxGeometry relative="1" as="geometry" />
        </mxCell>
        <mxCell id="Jvwifc8JzOHJba4kG9xW-23" style="edgeStyle=orthogonalEdgeStyle;rounded=0;orthogonalLoop=1;jettySize=auto;html=1;" edge="1" parent="1" source="Jvwifc8JzOHJba4kG9xW-11" target="Jvwifc8JzOHJba4kG9xW-20">
          <mxGeometry relative="1" as="geometry" />
        </mxCell>
        <mxCell id="Jvwifc8JzOHJba4kG9xW-11" value="遍历configMap，检查templateMap中是否需要检测该项配置，将已检查过的配置项checked设置为true；遍历完configMap后，遍历templateMap，找出checked为false的配置项，即为配置文件缺失的配置项；将以上检查结果保存" style="rounded=1;whiteSpace=wrap;html=1;" vertex="1" parent="1">
          <mxGeometry x="190" y="330" width="330" height="170" as="geometry" />
        </mxCell>
        <mxCell id="Jvwifc8JzOHJba4kG9xW-19" value="仅返回不匹配的项" style="rounded=1;whiteSpace=wrap;html=1;" vertex="1" parent="1">
          <mxGeometry x="180" y="585" width="120" height="60" as="geometry" />
        </mxCell>
        <mxCell id="Jvwifc8JzOHJba4kG9xW-20" value="返回所有项，并标注不匹配的项" style="rounded=1;whiteSpace=wrap;html=1;" vertex="1" parent="1">
          <mxGeometry x="410" y="585" width="120" height="60" as="geometry" />
        </mxCell>
      </root>
    </mxGraphModel>
  </diagram>
</mxfile>
